<svg width="59" height="60" viewBox="0 0 59 60" fill="none" xmlns="http://www.w3.org/2000/svg">
<path d="M25.2979 9.03241H0.102905V0.644531H25.2979V9.03241ZM42.0974 17.4203H0.102905V25.8082H42.1018V17.4203H42.0974ZM42.0974 0.644531H33.6977V9.03241H42.0974V0.644531ZM58.897 0.644531H50.4972V9.03241H58.897V0.644531ZM58.897 17.4203H50.4972V25.8082H58.897V17.4203ZM33.6977 59.3554H58.897V50.9675H33.6977V59.3554ZM16.9025 42.5839H58.9013V34.196H16.9025V42.5839ZM16.9025 59.3554H25.2979V50.9675H16.9025V59.3554ZM0.102905 59.3554H8.50268V50.9675H0.102905V59.3554ZM0.102905 42.5839H8.50268V34.196H0.102905V42.5839Z" fill="#00AF85"/>
</svg>
